# xmcd
#
# Track frame offsets:
#	150
#	18545
#	36536
#	52841
#	73894
#	89703
#	112722
#	130670
#
# Disc length: 1997 seconds
#
# Revision: 1
# Processed by: cddbd v1.5.2PL0 Copyright (c) Steve Scherf et al.
# Submitted via: audiograbber 1.83.01
#
DISCID=6a07cb08
DTITLE=Corinne Bailey Rae - Corinne Bailey Rae
DYEAR=1900
DGENRE=Blues
TTITLE0=Like A Star.
TTITLE1=Enchantment
TTITLE2=Put Your Records On
TTITLE3=Till It Happens To You
TTITLE4=Trouble Sleeping
TTITLE5=Call Me When You Get This
TTITLE6=Choux Pastry Heart
TTITLE7=Breathless
EXTD=
EXTT0=
EXTT1=
EXTT2=
EXTT3=
EXTT4=
EXTT5=
EXTT6=
EXTT7=
PLAYORDER=
